<svg width="177" height="177" viewBox="0 0 177 177" fill="none" xmlns="http://www.w3.org/2000/svg">
<path d="M103.888 71.0665C103.284 64.8838 98.2395 62.6989 91.8844 61.9627L91.8236 53.4047L86.9036 53.2912L86.963 61.6236C85.6696 61.5938 84.3477 61.5902 83.0343 61.5876L82.9756 53.2L78.0582 53.0859L78.1171 61.6414C77.052 61.6397 76.0061 61.6364 74.9861 61.6135L74.9853 61.5869L68.1994 61.4272L68.2401 66.9908C68.2401 66.9908 71.8728 67.0017 71.8129 67.0711C73.8058 67.118 74.4631 68.3579 74.6592 69.4194C74.825 92.8635 74.6592 69.4194 74.825 92.8635C74.7422 93.5256 74.381 94.5758 72.9887 94.5461C73.0521 94.6066 69.4123 94.4622 69.4123 94.4622L68.4788 100.661L74.8815 100.809C76.073 100.838 77.2455 100.886 78.3965 100.921L78.4599 109.576L83.3746 109.691L83.3138 101.127C84.6634 101.188 85.9694 101.23 87.2443 101.258L87.3026 109.782L92.2226 109.896L92.1629 101.256C100.431 100.945 106.205 98.8727 106.865 90.6653C107.399 84.0566 104.435 81.0336 99.7316 79.731C102.573 78.2592 104.337 75.5908 103.888 71.0665ZM97.1362 89.4143C97.1848 95.8827 86.719 94.9045 83.3847 94.8306L83.3046 83.3627C86.64 83.4409 97.0888 82.6678 97.1362 89.4143ZM94.7332 73.1817C94.7734 79.0664 86.0446 78.1775 83.2672 78.1134L83.1938 67.7126C85.9712 67.7767 94.6891 67.0437 94.7332 73.1817Z" fill="#043053"/>
</svg>
